<svg xmlns="http://www.w3.org/2000/svg" xmlns:xlink="http://www.w3.org/1999/xlink" version="1.1" width="1000" height="1000" viewBox="0 50 400 400" xml:space="preserve">
<defs>
</defs>
<rect x="0" y="0" width="100%" height="100%" fill="rgba(102,51,102,0)"/>
<g transform="matrix(-1.9455 0 0 1.9455 500.004 500.0031)" id="194199">
<path style="stroke: none; stroke-width: 1; stroke-dasharray: none; stroke-linecap: butt; stroke-dashoffset: 0; stroke-linejoin: miter; stroke-miterlimit: 4; is-custom-font: none; font-file-url: none; fill: rgb(6,56,49); fill-rule: nonzero; opacity: 0.75;" vector-effect="non-scaling-stroke" transform=" translate(-5.1954, 19.5242)" d="M 184.8 -173.9 C 228.1 -141.4 244 -70.7 237.4 -6.6 C 230.8 57.5 201.7 115 158.4 140 C 115 165 57.5 157.5 0.9 156.6 C -55.6 155.6 -111.3 161.3 -156.4 136.3 C -201.6 111.3 -236.3 55.6 -226.9 9.4 C -217.4 -36.8 -163.9 -73.5 -118.7 -106 C -73.5 -138.5 -36.8 -166.8 17 -183.7 C 70.7 -200.7 141.4 -206.4 184.8 -173.9" stroke-linecap="round"/>
</g>
</svg>