<?xml version="1.0" standalone="no"?><svg xmlns="http://www.w3.org/2000/svg" viewBox="0 0 1440 320"><path fill="#647C77" fill-opacity="0.5" d="M0,0L30,26.7C60,53,120,107,180,144C240,181,300,203,360,208C420,213,480,203,540,213.3C600,224,660,256,720,256C780,256,840,224,900,181.3C960,139,1020,85,1080,101.3C1140,117,1200,203,1260,250.7C1320,299,1380,309,1410,314.7L1440,320L1440,0L1410,0C1380,0,1320,0,1260,0C1200,0,1140,0,1080,0C1020,0,960,0,900,0C840,0,780,0,720,0C660,0,600,0,540,0C480,0,420,0,360,0C300,0,240,0,180,0C120,0,60,0,30,0L0,0Z"></path></svg>